<?xml version="1.0" encoding="utf-8"?>
<!-- Generator: Adobe Illustrator 24.0.2, SVG Export Plug-In . SVG Version: 6.00 Build 0)  -->
<svg version="1.1" id="Capa_1" xmlns="http://www.w3.org/2000/svg" xmlns:xlink="http://www.w3.org/1999/xlink" x="0px" y="0px"
	 viewBox="0 0 1000 1000" style="enable-background:new 0 0 1000 1000;" xml:space="preserve">
<style type="text/css">
	.st0{fill:none;stroke:#93278F;stroke-linecap:round;stroke-linejoin:round;}
</style>
<path class="st0" d="M580.78,719c33.77,35.44,68.34,66.21,113.87,87.16"/>
<line class="st0" x1="580.78" y1="719" x2="580.17" y2="716.94"/>
<path class="st0" d="M311.21,652.75C361.81,767.2,481.98,782.19,580.78,719"/>
<line class="st0" x1="581.31" y1="712.4" x2="582.25" y2="715.59"/>
<line class="st0" x1="682.68" y1="448.55" x2="710.95" y2="543.95"/>
<line class="st0" x1="521.88" y1="305.58" x2="644.92" y2="364.67"/>
<line class="st0" x1="644.92" y1="364.67" x2="649.63" y2="380.57"/>
<line class="st0" x1="651.29" y1="384.97" x2="679.23" y2="446.89"/>
<line class="st0" x1="679.23" y1="446.89" x2="682.68" y2="448.55"/>
<path class="st0" d="M580.17,716.94c-97.58,62.42-216.41,47.96-266.83-64.95"/>
<path class="st0" d="M390.67,736.37c-37.33-20.11-58.85-46.98-75.38-85.11"/>
<path class="st0" d="M321.35,648.88c48.99,110.15,164.81,124.39,259.96,63.52"/>
<path class="st0" d="M439.84,745.8c-34.34-30.25-49.99-64.23-58.79-107.89"/>
<path class="st0" d="M602.01,398.41c13.29-12.66,27.47-23.81,42.91-33.74"/>
<path class="st0" d="M679.23,446.89C608.62,492.06,564.07,593.34,588.56,676"/>
<line class="st0" x1="588.56" y1="676" x2="504.27" y2="635.53"/>
<path class="st0" d="M473.66,648.69c37.1,55.48,102.65,57.04,155.46,25.22"/>
<path class="st0" d="M595.9,689.02c-32.14-85.15,12.85-193.18,86.78-240.47"/>
<path class="st0" d="M649.63,380.57c0.45,1.51,1,2.97,1.65,4.4"/>
<path class="st0" d="M520.32,625.25c22.84,16.8,45.58,33.72,68.24,50.76"/>
<path class="st0" d="M606.46,860.58c-21.85,0.2-43.01-2.04-64.33-6.82"/>
<line class="st0" x1="606.36" y1="860.65" x2="606.46" y2="860.58"/>
<path class="st0" d="M580.78,719c89.91-57.51,148.8-167.18,154.17-272.2c5.69-111.44-52.98-227.1-179.7-221.76"/>
<path class="st0" d="M555.24,225.04c-22.21,1.08-42.89,5.47-63.62,13.51"/>
<path class="st0" d="M690.97,589.74c-2.48-8.36,2.69-19.07,10.7-22.43"/>
<line class="st0" x1="929.77" y1="600.05" x2="860.71" y2="644.22"/>
<path class="st0" d="M682.68,448.55c13.59-8.82,27.7-15.11,43.34-19.32"/>
<path class="st0" d="M728.78,466.4c-1.08-8.16-2.76-16.12-5.09-24.02"/>
<path class="st0" d="M726.49,426.61c-17.16,4.09-32.48,10.66-47.26,20.28"/>
<path class="st0" d="M581.31,712.4c94.67-60.56,154.97-182.19,148.72-293.74C722.78,289.33,624.63,200.09,496,248.48"/>
<path class="st0" d="M644.92,364.67c20.65-13.4,42.08-22.99,65.83-29.46"/>
<path class="st0" d="M493.52,242.67c42.52-16.44,89.85-19.99,133.37-2.08"/>
<path class="st0" d="M492.56,240.54c132.1-49.7,232.9,41.97,240.33,174.78c6.41,114.55-55.52,239.44-152.73,301.62"/>
<line class="st0" x1="723.69" y1="442.37" x2="729.42" y2="410.13"/>
<path class="st0" d="M907.63,667.94c10.32-21.83,17.58-44.08,22.12-67.8"/>
<line class="st0" x1="838.58" y1="712.11" x2="908.95" y2="667.1"/>
<path class="st0" d="M860.71,644.22c-4.54,23.75-11.8,46.03-22.14,67.89"/>
<path class="st0" d="M608.17,861.47c-5.96,3.82,5.96-3.81,8.95-5.72c8.9-5.7,17.81-11.39,26.71-17.09
	c11.89-7.61,23.79-15.22,35.68-22.83c23.8-15.23,47.61-30.45,71.41-45.68c47.59-30.44,95.19-60.89,142.78-91.33"/>
<line class="st0" x1="893.7" y1="678.83" x2="907.73" y2="669.86"/>
<line class="st0" x1="902.96" y1="747.68" x2="914.43" y2="740.34"/>
<path class="st0" d="M669.34,897.11c-4.88,3.12,4.88-3.12,7.32-4.68c7.29-4.66,14.57-9.32,21.86-13.98
	c9.73-6.23,19.46-12.45,29.2-18.68c19.48-12.46,38.95-24.91,58.43-37.37c38.94-24.91,77.88-49.82,116.82-74.72"/>
<line class="st0" x1="444.79" y1="963.99" x2="443.63" y2="964.74"/>
<line class="st0" x1="376.16" y1="956.09" x2="537.72" y2="852.75"/>
<path class="st0" d="M376.26,956.11c22.69,5.47,45.2,8.06,68.54,7.89"/>
<line class="st0" x1="444.79" y1="963.99" x2="606.36" y2="860.65"/>
<path class="st0" d="M512.32,630.68c-34.39,22-78.61,32.52-118.19,13.51"/>
<path class="st0" d="M545.28,329.45c58.42,28.06,71.01,99.36,61.25,154.98c-10.03,57.19-44.32,114.34-94.2,146.25"/>
<path class="st0" d="M425.37,345.57c-62.56,40.02-102.06,122.73-93.45,196.59"/>
<path class="st0" d="M250.44,261.56c-63.95,40.91-104.2,126.89-92.67,202.39c14.1,92.33,97.71,127.12,175.53,77.34"/>
<path class="st0" d="M333.3,541.29c63.95-40.9,104.19-126.89,92.67-202.39c-14.1-92.32-97.71-127.12-175.53-77.34"/>
<path class="st0" d="M426.75,344.7c-0.46,0.29-0.92,0.58-1.38,0.87"/>
<path class="st0" d="M171.11,221.75c0.22-0.15,0.38-0.14,0.59,0.03"/>
<path class="st0" d="M284.27,149.77c-18.4,39.75-62.69,83.25-112.57,72.01"/>
<path class="st0" d="M284.27,149.77c0.21-0.53,0.51-0.84,1.03-1.06"/>
<path class="st0" d="M176.51,649.07c59.9,28.77,126.85,14.3,179.87-17.97c57.69-35.11,93.89-79.84,122.67-139.77
	c28.79-59.94,41.06-116.17,32.4-183.16c-7.96-61.55-38.53-122.84-98.43-151.61"/>
<line class="st0" x1="501.42" y1="263.26" x2="538.11" y2="280.87"/>
<path class="st0" d="M538.11,280.87c-6.49,12.46-14.36,23.43-24.09,33.57"/>
<path class="st0" d="M310.27,653.08c7.95,20.92,17.8,40.49,29.86,59.34"/>
<path class="st0" d="M340.12,712.42c45.78,71.57,117.89,122.24,200.73,141.06"/>
<path class="st0" d="M605.27,861.43c0.98,0.02,1.96,0.04,2.94,0.05"/>
<path class="st0" d="M907.73,669.86c0.39-0.88,0.78-1.77,1.17-2.65"/>
<path class="st0" d="M929.78,600.05c15.89-81.53-0.22-166.06-44.98-236.03"/>
<path class="st0" d="M884.8,364.02c-83.8-131.01-249-183.79-393.24-125.63"/>
<path class="st0" d="M914.44,740.34c-7.67-23.48-9.81-45.88-6.72-70.39"/>
<path class="st0" d="M608.25,861.51c23.54,7.47,42.99,18.81,61.08,35.61"/>
<path class="st0" d="M410.42,962.31c11.03,1.39,22.06,2.21,33.17,2.46"/>
<line class="st0" x1="360.94" y1="628.26" x2="394.13" y2="644.19"/>
<line class="st0" x1="545.28" y1="329.45" x2="512.09" y2="313.52"/>
<line class="st0" x1="174.39" y1="648.05" x2="176.51" y2="649.07"/>
<line class="st0" x1="413.03" y1="156.56" x2="410.9" y2="155.54"/>
<path class="st0" d="M168.17,644.89c2.05,1.1,4.12,2.15,6.22,3.16"/>
<path class="st0" d="M410.9,155.54c-43.35-20.82-80.77-20.48-125.6-6.83"/>
<line class="st0" x1="422.48" y1="286.31" x2="424.86" y2="287.45"/>
<line class="st0" x1="431.86" y1="272.88" x2="429.57" y2="271.78"/>
<line class="st0" x1="483.4" y1="488.02" x2="472.17" y2="482.63"/>
<line class="st0" x1="467.91" y1="491.34" x2="479.2" y2="496.76"/>
<line class="st0" x1="463.74" y1="501.89" x2="474.21" y2="506.92"/>
<line class="st0" x1="488.3" y1="477.82" x2="477.92" y2="472.84"/>
<line class="st0" x1="500.21" y1="585.1" x2="498.72" y2="580.09"/>
<line class="st0" x1="493.56" y1="576.81" x2="495.01" y2="581.72"/>
<line class="st0" x1="531.06" y1="565.37" x2="529.57" y2="560.36"/>
<path class="st0" d="M171.08,221.72c-54.91,57.18-90.9,136.32-96.81,215.58c-5.73,76.94,18.2,166.9,93.89,207.58"/>
<line class="st0" x1="540.28" y1="332.43" x2="366.36" y2="248.91"/>
<line class="st0" x1="218.4" y1="554.42" x2="393.33" y2="638.43"/>
<line class="st0" x1="478.17" y1="587.21" x2="479.7" y2="592.38"/>
<line class="st0" x1="515.19" y1="563.53" x2="516.73" y2="568.7"/>
<line class="st0" x1="525.97" y1="565.78" x2="524.49" y2="560.77"/>
<line class="st0" x1="488.95" y1="589.46" x2="487.47" y2="584.45"/>
<line class="st0" x1="512.09" y1="313.52" x2="371.39" y2="245.95"/>
<line class="st0" x1="219.2" y1="560.18" x2="360.94" y2="628.26"/>
<path class="st0" d="M744.81,768.25c6.91-16.04,12.43-32.37,16.65-49.31"/>
<path class="st0" d="M413.97,959.48c9.55,1.11,19.1,1.79,28.71,2.03"/>
<line class="st0" x1="612.45" y1="808.78" x2="610.71" y2="806.06"/>
<line class="st0" x1="533.22" y1="855.62" x2="534.97" y2="858.34"/>
<path class="st0" d="M747.38,770.44c8.19-18.84,14.45-38.03,18.95-58.08"/>
<line class="st0" x1="783.62" y1="781.8" x2="780.13" y2="776.36"/>
<line class="st0" x1="758.35" y1="790.29" x2="761.83" y2="795.74"/>
<line class="st0" x1="812.38" y1="764.34" x2="825.89" y2="785.46"/>
<line class="st0" x1="839.51" y1="776.75" x2="824.42" y2="753.16"/>
<line class="st0" x1="865.69" y1="731.61" x2="878.58" y2="751.76"/>
<line class="st0" x1="793.53" y1="779.3" x2="786.56" y2="768.41"/>
<line class="st0" x1="748.44" y1="792.79" x2="755.4" y2="803.69"/>
<line class="st0" x1="761.12" y1="800.03" x2="773.1" y2="818.76"/>
<line class="st0" x1="799.79" y1="801.68" x2="787.81" y2="782.96"/>
<line class="st0" x1="694.74" y1="869.35" x2="681.85" y2="849.2"/>
<line class="st0" x1="664.82" y1="852.57" x2="681.12" y2="878.06"/>
<line class="st0" x1="705.41" y1="874.04" x2="694.15" y2="856.43"/>
<line class="st0" x1="663.68" y1="862.79" x2="668.78" y2="870.76"/>
<line class="st0" x1="867.09" y1="745.8" x2="878.36" y2="763.41"/>
<line class="st0" x1="890.21" y1="727.94" x2="885.64" y2="720.8"/>
<line class="st0" x1="813.1" y1="777.46" x2="825.67" y2="797.12"/>
<line class="st0" x1="812.79" y1="776.99" x2="812.8" y2="777"/>
<path class="st0" d="M906.02,745.72c-4.03-11.75-6.71-23.6-8.13-35.94"/>
<line class="st0" x1="834.51" y1="756.94" x2="834.51" y2="756.94"/>
<line class="st0" x1="848.84" y1="779.35" x2="834.71" y2="757.26"/>
<path class="st0" d="M897.81,709.85c0-0.01,0.01-0.01,0.01-0.02"/>
<path class="st0" d="M803.31,811.08c39.43-27.58,69.63-59.92,94.45-101.15"/>
<line class="st0" x1="803.46" y1="811.32" x2="803.31" y2="811.08"/>
<line class="st0" x1="780.16" y1="825.89" x2="780.31" y2="826.13"/>
<path class="st0" d="M648.73,869.22c47.84-5.24,89.86-19.1,131.43-43.33"/>
<line class="st0" x1="717.92" y1="831.52" x2="730.08" y2="850.53"/>
<line class="st0" x1="758.1" y1="840.34" x2="745.24" y2="820.22"/>
<path class="st0" d="M648.54,869.28c10.61,6.47,20.24,13.87,29.22,22.45"/>
<line class="st0" x1="828.61" y1="783.72" x2="833.84" y2="791.89"/>
<line class="st0" x1="842.01" y1="786.67" x2="836.78" y2="778.5"/>
<line class="st0" x1="736.54" y1="842.62" x2="741.76" y2="850.79"/>
<line class="st0" x1="749.93" y1="845.56" x2="744.71" y2="837.39"/>
<line class="st0" x1="683.85" y1="876.32" x2="689.07" y2="884.49"/>
<line class="st0" x1="697.24" y1="879.27" x2="692.02" y2="871.1"/>
<line class="st0" x1="881.31" y1="750.02" x2="886.53" y2="758.19"/>
<line class="st0" x1="894.7" y1="752.96" x2="889.48" y2="744.79"/>
<line class="st0" x1="892.2" y1="743.05" x2="875.89" y2="717.56"/>
<line class="st0" x1="718.48" y1="820.38" x2="733.82" y2="844.36"/>
<line class="st0" x1="747.43" y1="835.65" x2="733.63" y2="814.08"/>
<line class="st0" x1="824.95" y1="774.71" x2="803.98" y2="741.92"/>
<line class="st0" x1="826.09" y1="343.96" x2="633.42" y2="251.44"/>
<line class="st0" x1="800.87" y1="435.04" x2="799.79" y2="434.52"/>
<line class="st0" x1="759.89" y1="708.71" x2="757.03" y2="704.24"/>
<line class="st0" x1="711.21" y1="580.26" x2="705.77" y2="577.65"/>
<line class="st0" x1="705.53" y1="593.67" x2="801.47" y2="639.75"/>
<line class="st0" x1="809.87" y1="622.26" x2="714.04" y2="576.24"/>
<line class="st0" x1="701.52" y1="586.37" x2="707.01" y2="589"/>
<line class="st0" x1="732.3" y1="577.84" x2="711.52" y2="567.86"/>
<line class="st0" x1="697.34" y1="596.91" x2="718.21" y2="606.93"/>
<line class="st0" x1="825.92" y1="665.23" x2="743.28" y2="608.47"/>
<line class="st0" x1="716.98" y1="613.52" x2="795.49" y2="651.22"/>
<path class="st0" d="M878.14,722.42c11.53-16.63,21.3-33.97,29.55-52.45"/>
<path class="st0" d="M801.59,800.41c30.36-21.9,55.15-47.15,76.49-77.91"/>
<line class="st0" x1="692.5" y1="723.35" x2="705.42" y2="743.55"/>
<line class="st0" x1="514.83" y1="685" x2="649.73" y2="749.78"/>
<line class="st0" x1="403.21" y1="734.58" x2="474.56" y2="768.85"/>
<line class="st0" x1="716.45" y1="613.98" x2="795.18" y2="651.79"/>
<line class="st0" x1="726.55" y1="636.2" x2="807.58" y2="691.86"/>
<line class="st0" x1="740.11" y1="782.77" x2="757.53" y2="810.01"/>
<line class="st0" x1="780.55" y1="795.28" x2="786.36" y2="804.38"/>
<line class="st0" x1="764.33" y1="805.65" x2="772.83" y2="818.93"/>
<path class="st0" d="M608.29,861.48c60.56,0.78,111.95-12.51,164.54-42.55"/>
<path class="st0" d="M301.57,626.89c2.53,8.86,5.42,17.58,8.69,26.19"/>
<line class="st0" x1="402.94" y1="288.51" x2="400.04" y2="287.11"/>
<line class="st0" x1="406.89" y1="301.83" x2="403.99" y2="300.44"/>
<line class="st0" x1="412.38" y1="279.22" x2="415.28" y2="280.61"/>
<line class="st0" x1="419.23" y1="293.93" x2="416.33" y2="292.54"/>
<line class="st0" x1="440.4" y1="344.77" x2="372.74" y2="312.28"/>
<path class="st0" d="M532.63,285.77c-18.03,30.82-52.53,61.3-92.23,58.99"/>
<line class="st0" x1="464.97" y1="253.28" x2="532.63" y2="285.77"/>
<path class="st0" d="M415.44,302.23c-13.75,7.21-26.92,10.96-42.7,10.04"/>
<path class="st0" d="M464.97,253.28c-10.2,17.76-22.82,31.46-39.68,43.08"/>
<path class="st0" d="M440.4,344.77c27.26-26.38,56.15-46.09,92.23-58.99"/>
<path class="st0" d="M372.74,312.28c27.26-26.38,56.15-46.09,92.23-58.99"/>
<path class="st0" d="M538.11,280.87c-41.54,13.56-73.58,35.82-103.88,66.45"/>
<path class="st0" d="M470.45,248.39c-41.53,13.56-73.58,35.82-103.88,66.45"/>
<line class="st0" x1="434.23" y1="347.32" x2="366.57" y2="314.83"/>
<path class="st0" d="M514.02,314.45c-19.87,20.57-49.16,37.14-79.8,32.88"/>
<line class="st0" x1="470.45" y1="248.39" x2="501.42" y2="263.26"/>
<path class="st0" d="M474.32,240.43c-1.21,2.69-2.5,5.34-3.87,7.96"/>
<path class="st0" d="M471.42,239.04c-18.32,40.65-63.56,85.56-114.35,73.15"/>
<path class="st0" d="M366.57,314.83c-2.22-0.31-4.42-0.73-6.6-1.26"/>
<line class="st0" x1="357.07" y1="312.18" x2="359.97" y2="313.57"/>
<path class="st0" d="M357.07,312.18c33.05-34.45,67.9-59.01,114.35-73.15"/>
<line class="st0" x1="474.32" y1="240.43" x2="471.42" y2="239.04"/>
<path class="st0" d="M359.97,313.57c33.05-34.45,67.9-59.01,114.35-73.15"/>
<line class="st0" x1="416.33" y1="292.54" x2="412.38" y2="279.22"/>
<line class="st0" x1="403.99" y1="300.44" x2="416.33" y2="292.54"/>
<line class="st0" x1="400.04" y1="287.11" x2="403.99" y2="300.44"/>
<line class="st0" x1="412.38" y1="279.22" x2="400.04" y2="287.11"/>
<path class="st0" d="M419.29,282.72c2.77,9.36,14.41,1.09,12.34-7.89"/>
<path class="st0" d="M424.86,287.45c6.46,2.71,11.03-5.32,9.67-11.23"/>
<path class="st0" d="M422.19,284.12c0.35,1.31,0.98,2.21,2.09,3"/>
<path class="st0" d="M431.63,274.83c-2.77-9.36-14.41-1.09-12.34,7.89"/>
<path class="st0" d="M431.33,272.67c-6.34-1.8-10.43,5.85-9.14,11.45"/>
<path class="st0" d="M434.53,276.22c-0.42-1.61-1.19-2.58-2.67-3.34"/>
<line class="st0" x1="402.94" y1="288.51" x2="406.89" y2="301.83"/>
<line class="st0" x1="415.28" y1="280.61" x2="402.94" y2="288.51"/>
<line class="st0" x1="419.23" y1="293.93" x2="415.28" y2="280.61"/>
<line class="st0" x1="406.89" y1="301.83" x2="419.23" y2="293.93"/>
<path class="st0" d="M483.4,488.02c0.89,0.46,1.35,1.04,1.6,2"/>
<path class="st0" d="M477.6,494.76c-1.06-4.61,0.27-8.35,5.48-6.87"/>
<path class="st0" d="M473.41,484.46c-1.41-5.69-8.65-0.65-7.41,4.74"/>
<path class="st0" d="M478.85,496.56c-0.66-0.47-1.04-1.01-1.25-1.8"/>
<path class="st0" d="M485,490.03c1.1,4.77-0.59,8.92-5.8,6.74"/>
<path class="st0" d="M466,489.19c1.41,5.69,8.65,0.65,7.41-4.74"/>
<path class="st0" d="M473.13,506.29c-2.21-1.58-3.46-3.38-4.17-6"/>
<path class="st0" d="M493.64,484.5c3.45,11.63-7.12,28.51-19.43,22.42"/>
<path class="st0" d="M482.05,478.93c2.67,9.01,0.2,14.32-6.79,20.04c-7.74,6.35-14.85,6.04-17.9-4.26"/>
<path class="st0" d="M488.4,477.87c2.9,1.53,4.42,3.46,5.25,6.63"/>
<path class="st0" d="M468.96,500.29c-3.22-10.88,6.2-26.33,18.28-22.89"/>
<path class="st0" d="M457.36,494.72c-2.67-9.01-0.2-14.32,6.79-20.04c7.74-6.35,14.85-6.04,17.9,4.26"/>
<line class="st0" x1="513.21" y1="575.97" x2="503.55" y2="571.33"/>
<line class="st0" x1="509.72" y1="567.39" x2="519.38" y2="572.03"/>
<path class="st0" d="M481.13,596.5c1.68,0.51,2.94,0.33,4.4-0.65"/>
<path class="st0" d="M483.95,590.52c-1.46,0.98-2.72,1.16-4.4,0.65"/>
<path class="st0" d="M500.29,585.38c-0.1-0.38-0.29-0.58-0.65-0.72"/>
<path class="st0" d="M499.1,587.16c0.81-0.37,1.14-0.85,1.19-1.74"/>
<path class="st0" d="M498.7,580.45c-0.22,0.65-0.57,1.06-1.18,1.39"/>
<path class="st0" d="M498.06,579.33c0.38,0.15,0.57,0.36,0.65,0.77"/>
<path class="st0" d="M495.77,582.8c-1.5-0.72-0.55-1.81,0.53-2.51"/>
<path class="st0" d="M493.66,577.02c0.14,0.21,0.31,0.35,0.54,0.45"/>
<path class="st0" d="M494.73,574.97c-0.84,0.37-1.17,0.86-1.18,1.78"/>
<path class="st0" d="M503.71,575.56c1.46-0.98,2.72-1.16,4.4-0.65"/>
<path class="st0" d="M506.53,569.58c-1.68-0.51-2.94-0.33-4.4,0.65"/>
<path class="st0" d="M511.98,576.76c1.68,0.51,2.94,0.33,4.4-0.65"/>
<path class="st0" d="M514.8,570.78c-1.46,0.98-2.72,1.16-4.4,0.65"/>
<path class="st0" d="M531.14,565.65c-0.1-0.38-0.29-0.58-0.65-0.72"/>
<path class="st0" d="M529.96,567.43c0.81-0.37,1.14-0.85,1.19-1.74"/>
<path class="st0" d="M529.56,560.71c-0.22,0.65-0.57,1.06-1.18,1.39"/>
<path class="st0" d="M528.91,559.59c0.38,0.15,0.57,0.36,0.66,0.77"/>
<line class="st0" x1="468.7" y1="582.53" x2="465.8" y2="581.14"/>
<path class="st0" d="M408.12,154.31c-41.69-18.24-77.81-17.49-120.31-4.56"/>
<path class="st0" d="M173.46,222.9c-54.59,56.9-90.47,135.5-96.7,214.3c-6.03,76.37,16.97,166.04,91.46,207.58"/>
<line class="st0" x1="285.68" y1="148.74" x2="287.81" y2="149.76"/>
<path class="st0" d="M285.3,148.7c0.14-0.04,0.25-0.03,0.38,0.03"/>
<path class="st0" d="M171.33,221.88c-0.08-0.04-0.16-0.07-0.23-0.13"/>
<line class="st0" x1="173.46" y1="222.9" x2="171.33" y2="221.88"/>
<path class="st0" d="M287.81,149.76c-18.32,40.65-63.56,85.56-114.35,73.15"/>
<path class="st0" d="M508.24,625.29c63.76-40.78,103.9-126.31,92.79-201.59c-13.56-91.85-96.16-127.92-174.28-79.01"/>
<path class="st0" d="M393.33,638.43c38.48,18.48,81.47,8.25,114.91-13.13"/>
<path class="st0" d="M331.92,542.16c4.41,38.52,23.2,77.37,60.39,95.78"/>
<line class="st0" x1="465.8" y1="581.14" x2="515.16" y2="549.56"/>
<line class="st0" x1="466.98" y1="585.14" x2="465.8" y2="581.14"/>
<line class="st0" x1="515.16" y1="549.56" x2="518.06" y2="550.96"/>
<line class="st0" x1="516.35" y1="553.56" x2="515.16" y2="549.56"/>
<path class="st0" d="M480.69,593.53c-2.74-1.31-0.34-3.29,1.68-4.24c1.94-0.92,3.55-1.54,5.73-0.49"/>
<path class="st0" d="M478.3,587.5c0.21,0.32,0.46,0.54,0.82,0.69"/>
<path class="st0" d="M486.52,583.46c-2.98-1.43-9.52-0.22-8.35,3.75"/>
<path class="st0" d="M517.72,569.85c-2.73-1.31-0.34-3.29,1.68-4.24c1.94-0.92,3.55-1.54,5.73-0.49"/>
<path class="st0" d="M515.32,563.82c0.21,0.32,0.46,0.54,0.82,0.69"/>
<path class="st0" d="M523.54,559.78c-2.98-1.43-9.52-0.22-8.35,3.74"/>
<path class="st0" d="M525.12,565.11c2.74,1.31,0.34,3.29-1.68,4.24c-1.94,0.92-3.55,1.54-5.73,0.49"/>
<path class="st0" d="M524.49,560.77c-0.18-0.5-0.45-0.79-0.95-0.99"/>
<path class="st0" d="M516.14,564.52c2.57,1.24,8.21-0.3,8.39-3.59"/>
<line class="st0" x1="466.98" y1="585.14" x2="516.35" y2="553.56"/>
<line class="st0" x1="469.88" y1="586.53" x2="466.98" y2="585.14"/>
<line class="st0" x1="479.55" y1="591.17" x2="469.88" y2="586.53"/>
<line class="st0" x1="497.52" y1="581.84" x2="483.95" y2="590.52"/>
<line class="st0" x1="494.19" y1="577.47" x2="498.06" y2="579.33"/>
<line class="st0" x1="502.13" y1="570.23" x2="494.73" y2="574.97"/>
<line class="st0" x1="510.4" y1="571.44" x2="506.53" y2="569.58"/>
<line class="st0" x1="528.38" y1="562.1" x2="514.8" y2="570.78"/>
<line class="st0" x1="519.25" y1="554.95" x2="528.91" y2="559.59"/>
<line class="st0" x1="516.35" y1="553.56" x2="519.25" y2="554.95"/>
<path class="st0" d="M488.1,588.79c2.74,1.31,0.34,3.29-1.68,4.24c-1.94,0.92-3.55,1.54-5.72,0.49"/>
<path class="st0" d="M487.5,584.61c-0.18,3.28-5.81,4.82-8.39,3.59"/>
<path class="st0" d="M486.52,583.46c0.49,0.2,0.77,0.49,0.95,0.99"/>
<line class="st0" x1="530.49" y1="564.92" x2="520.83" y2="560.28"/>
<line class="st0" x1="516.38" y1="576.11" x2="529.96" y2="567.43"/>
<line class="st0" x1="508.11" y1="574.91" x2="511.98" y2="576.76"/>
<line class="st0" x1="496.31" y1="580.29" x2="503.71" y2="575.56"/>
<line class="st0" x1="499.64" y1="584.66" x2="495.77" y2="582.8"/>
<line class="st0" x1="485.53" y1="595.85" x2="499.1" y2="587.16"/>
<line class="st0" x1="471.46" y1="591.86" x2="481.13" y2="596.5"/>
<line class="st0" x1="492.23" y1="589.39" x2="482.57" y2="584.75"/>
<path class="st0" d="M519.38,572.03c-5.16,6.43-3.76,12.36-2.56,19.33"/>
<line class="st0" x1="513.21" y1="575.97" x2="519.38" y2="572.03"/>
<path class="st0" d="M510.65,595.31c-1.2-6.97-2.6-12.9,2.56-19.33"/>
<path class="st0" d="M498.4,585.45c-5.16,6.43-3.76,12.36-2.56,19.33"/>
<line class="st0" x1="492.23" y1="589.39" x2="498.4" y2="585.45"/>
<path class="st0" d="M489.67,608.73c-1.2-6.97-2.6-12.9,2.56-19.33"/>
<line class="st0" x1="488.74" y1="580.81" x2="498.4" y2="585.45"/>
<line class="st0" x1="488.74" y1="580.81" x2="495.84" y2="604.78"/>
<line class="st0" x1="503.55" y1="571.33" x2="488.74" y2="580.81"/>
<line class="st0" x1="510.65" y1="595.31" x2="503.55" y2="571.33"/>
<line class="st0" x1="516.82" y1="591.36" x2="510.65" y2="595.31"/>
<line class="st0" x1="509.72" y1="567.39" x2="516.82" y2="591.36"/>
<line class="st0" x1="520.83" y1="560.28" x2="509.72" y2="567.39"/>
<line class="st0" x1="519.25" y1="554.95" x2="520.83" y2="560.28"/>
<line class="st0" x1="518.06" y1="550.96" x2="519.25" y2="554.95"/>
<line class="st0" x1="468.7" y1="582.53" x2="518.06" y2="550.96"/>
<line class="st0" x1="469.88" y1="586.53" x2="468.7" y2="582.53"/>
<line class="st0" x1="471.46" y1="591.86" x2="469.88" y2="586.53"/>
<line class="st0" x1="482.57" y1="584.75" x2="471.46" y2="591.86"/>
<line class="st0" x1="489.67" y1="608.73" x2="482.57" y2="584.75"/>
<line class="st0" x1="495.84" y1="604.78" x2="489.67" y2="608.73"/>
<path class="st0" d="M427.09,342.97c34.39-22,78.61-32.52,118.19-13.51"/>
<path class="st0" d="M252.15,258.96c80.07-51.22,166.07-15.4,180.55,79.58c11.84,77.64-29.55,166.06-95.32,208.13"/>
<path class="st0" d="M337.39,546.67c-80.07,51.22-166.07,15.4-180.56-79.59c-11.84-77.64,29.55-166.06,95.32-208.13"/>
<path class="st0" d="M393.09,643.69c-57.78-28.6-69.97-99.68-60.11-155.04c10.16-56.99,44.38-113.87,94.1-145.68"/>
<path class="st0" d="M513.27,920.19c-23.37,0.18-45.91-2.42-68.63-7.91"/>
<path class="st0" d="M758.92,739.25c-3.59,10.94-7.83,21.55-12.74,31.96"/>
<path class="st0" d="M767.75,705.69c-0.45,2.23-0.92,4.46-1.42,6.68"/>
<path class="st0" d="M677.69,815.02c9.96-21.14,17.05-42.7,21.6-65.62"/>
<path class="st0" d="M509.74,918.61c-20.04,0-39.54-2.08-59.13-6.31"/>
<path class="st0" d="M754.9,741.3c-3.17,9.38-6.82,18.53-10.98,27.52"/>
<path class="st0" d="M762.96,712.58c-0.48,2.12-0.98,4.24-1.51,6.35"/>
<line class="st0" x1="677.74" y1="811.15" x2="443.56" y2="960.94"/>
<path class="st0" d="M677.74,811.15c8.4-18.2,14.69-36.77,19.06-56.33"/>
<path class="st0" d="M384.53,954.65c19.56,4.22,39.02,6.29,59.04,6.29"/>
<path class="st0" d="M744.8,768.26c5.58-3.57-5.58,3.57-8.37,5.35c-2.79,1.79-5.59,3.57-8.38,5.36
	c-5.59,3.58-11.18,7.15-16.77,10.73c-11.18,7.15-22.36,14.3-33.54,21.45"/>
<line class="st0" x1="762.98" y1="712.49" x2="696.8" y2="754.82"/>
<line class="st0" x1="443.56" y1="960.94" x2="442.68" y2="961.51"/>
<line class="st0" x1="696.8" y1="754.82" x2="384.43" y2="954.63"/>
<line class="st0" x1="537.72" y1="852.75" x2="699.29" y2="749.4"/>
<line class="st0" x1="699.29" y1="749.4" x2="767.77" y2="705.59"/>
<path class="st0" d="M783.51,781.87c0.03-0.02,0.13-0.09,0.08-0.05c-0.05,0.03-0.09,0.06-0.14,0.09c-0.09,0.06-0.19,0.12-0.28,0.18
	c-0.19,0.12-0.38,0.24-0.57,0.36"/>
<line class="st0" x1="782.6" y1="782.45" x2="761.94" y2="795.67"/>
<path class="st0" d="M780.02,776.43c0.03-0.02,0.13-0.09,0.08-0.05c-0.05,0.03-0.09,0.06-0.14,0.09c-0.09,0.06-0.19,0.12-0.28,0.18
	c-0.19,0.12-0.38,0.24-0.57,0.36"/>
<line class="st0" x1="779.11" y1="777.01" x2="758.46" y2="790.22"/>
<line class="st0" x1="784.78" y1="769.55" x2="786.53" y2="768.43"/>
<path class="st0" d="M748.47,792.77c-2.98,1.91,2.98-1.91,4.48-2.86c1.52-0.97,3.03-1.94,4.55-2.91c3.03-1.94,6.06-3.88,9.1-5.82
	c6.06-3.88,12.13-7.76,18.19-11.63"/>
<path class="st0" d="M793.52,779.31c0.13-0.08-0.13,0.08-0.19,0.12c-0.08,0.05-0.15,0.1-0.23,0.14c-0.15,0.1-0.3,0.19-0.45,0.29
	c-0.3,0.19-0.6,0.38-0.9,0.58"/>
<line class="st0" x1="791.74" y1="780.44" x2="755.42" y2="803.68"/>
<path class="st0" d="M829.6,794.61c-0.65-1.67-1.25-3.34-1.79-5.04c-0.55-1.73-1.04-3.49-1.44-5.26c-0.64-2.8-1.06-5.65-1.1-8.53
	c-0.03-2.41,0.2-4.85,1.03-7.11c0.35-0.95,0.79-1.86,1.4-2.66c0.46-0.6,1.01-1.14,1.66-1.54"/>
<path class="st0" d="M887.97,726.96c0.2-0.18,0.48-0.2,0.73-0.15c0.36,0.08,0.67,0.31,0.95,0.57c0.39,0.37,0.71,0.79,1,1.24
	c0.41,0.62,0.77,1.28,1.11,1.95c0.84,1.65,1.56,3.36,2.26,5.08c1.92,4.71,3.69,9.47,5.6,14.19"/>
<path class="st0" d="M693.76,881.49c-1.18-1.07-2.38-2.1-3.6-3.11c-1.24-1.02-2.51-2.02-3.81-2.97c-2.39-1.77-4.88-3.39-7.49-4.84
	c-2.12-1.17-4.31-2.22-6.63-2.91c-0.79-0.23-1.59-0.42-2.41-0.47c-0.53-0.03-1.06,0-1.52,0.28"/>
<path class="st0" d="M848.84,779.35c0.44,0.7,0.88,1.4,1.32,2.1"/>
<path class="st0" d="M829.35,764.46c0.49-0.32,1.02-0.56,1.58-0.69c0.63-0.15,1.31-0.18,1.96-0.11c1.45,0.16,2.8,0.8,4.02,1.6
	c1.61,1.05,3,2.36,4.3,3.77c1.82,1.97,3.44,4.13,4.98,6.32"/>
<path class="st0" d="M834.51,756.94c0.25,0.43,0.37,0.91,0.39,1.4c0.04,0.68-0.09,1.35-0.27,2.01c-0.52,1.88-1.51,3.56-2.62,5.15
	c-2.75,3.92-6.26,7.29-10.27,9.9"/>
<path class="st0" d="M825.5,758.44c1.41-0.9,2.84-1.67,4.45-2.18c1.75-0.54,3.29-1.42,4.57,0.67"/>
<path class="st0" d="M812.78,777c-0.29-0.45-0.38-0.98-0.39-1.5c-0.01-0.72,0.15-1.44,0.36-2.13c0.57-1.83,1.52-3.5,2.61-5.08
	c2.7-3.9,6.18-7.24,10.13-9.85"/>
<path class="st0" d="M821.75,775.4c-0.98,0.63-1.99,1.2-3.06,1.67c-0.45,0.2-0.92,0.39-1.39,0.53c-0.37,0.12-0.75,0.21-1.14,0.28
	c-0.68,0.13-1.38,0.18-2.05,0c-0.53-0.14-1.03-0.41-1.33-0.89"/>
<path class="st0" d="M684.07,856.26c1.75-0.24,3.51-0.42,5.27-0.51c0.63-0.03,1.26-0.05,1.9-0.03c0.51,0.01,1.03,0.05,1.53,0.12
	c0.33,0.04,0.67,0.1,0.99,0.25c0.18,0.08,0.36,0.2,0.4,0.36c0.05,0.16-0.03,0.36-0.13,0.52c-0.19,0.28-0.5,0.41-0.76,0.62"/>
<path class="st0" d="M664.44,861.45c6.23-3.99,12.81-4.28,19.63-5.19"/>
<path class="st0" d="M897.77,709.8c0.84-0.54-0.84,0.54-1.26,0.81c-0.49,0.31-0.98,0.63-1.47,0.94c-0.98,0.63-1.96,1.26-2.95,1.88
	c-1.96,1.26-3.93,2.51-5.89,3.77"/>
<path class="st0" d="M881.53,729.95c1.81-2.85,7.85-12.38,2.59-9.01"/>
<path class="st0" d="M868.52,745.49c0.42-0.27,0.81-0.58,1.19-0.91c0.5-0.43,0.97-0.88,1.44-1.34c1.18-1.18,2.29-2.43,3.37-3.71
	c2.54-3.04,4.89-6.24,7.01-9.58"/>
<path class="st0" d="M803.19,811.16c0.03-0.02,0.14-0.09,0.09-0.05c-0.05,0.03-0.1,0.06-0.15,0.1c-0.1,0.06-0.2,0.13-0.3,0.19
	c-0.2,0.13-0.4,0.26-0.6,0.38"/>
<path class="st0" d="M871.17,736.58c-0.95,1.49-1.85,3.01-2.67,4.57c-0.29,0.56-0.57,1.13-0.82,1.71c-0.2,0.47-0.38,0.96-0.54,1.44
	c-0.1,0.32-0.19,0.65-0.19,1c0,0.2,0.03,0.41,0.16,0.52c0.12,0.11,0.34,0.13,0.52,0.1c0.33-0.06,0.58-0.28,0.88-0.43"/>
<path class="st0" d="M884.11,720.94c-6.23,3.99-9.26,9.84-12.95,15.64"/>
<path class="st0" d="M673.71,862.88c-3.35,0.45-14.54,1.94-9.27-1.43"/>
<path class="st0" d="M693.27,857.59c-0.42,0.27-0.87,0.5-1.32,0.7c-0.59,0.27-1.2,0.52-1.82,0.74c-1.57,0.58-3.17,1.06-4.78,1.5
	c-3.82,1.04-7.71,1.82-11.64,2.35"/>
<line class="st0" x1="802.22" y1="811.78" x2="780.28" y2="825.82"/>
<path class="st0" d="M717.92,831.52c-1.37-2.03,0.07-3.07,1.3-4.43c1.13-1.25,2.43-2.23,3.84-3.13"/>
<path class="st0" d="M740.03,827.68c-0.91,0.58-1.86,1.12-2.82,1.62c-1.1,0.56-2.23,1.06-3.38,1.52c-2.19,0.86-4.46,1.54-6.77,1.98
	c-1.81,0.34-3.64,0.54-5.48,0.35c-1.25-0.13-2.51-0.42-3.42-1.33"/>
<path class="st0" d="M745.47,820.72c0.06,0.24,0.09,0.48,0.07,0.73c-0.01,0.25-0.07,0.49-0.14,0.73c-0.2,0.64-0.56,1.21-0.97,1.75
	c-1.19,1.54-2.79,2.7-4.41,3.75"/>
<path class="st0" d="M723.06,823.96c1.01-0.64,2.05-1.22,3.12-1.75c1.05-0.52,2.12-0.98,3.21-1.4c2.22-0.85,4.51-1.52,6.85-1.93
	c1.89-0.33,3.81-0.49,5.71-0.23c0.72,0.1,1.44,0.25,2.09,0.57c0.48,0.23,0.92,0.55,1.2,1"/>
<path class="st0" d="M726.91,829.98c0.63-0.41,1.35-0.69,2.09-0.86c0.98-0.22,2-0.24,3-0.16c2.4,0.2,4.71,1.01,6.89,2.05
	c2.6,1.24,5,2.82,7.28,4.58c2.85,2.2,5.5,4.67,8,7.25"/>
<path class="st0" d="M733.61,856.01c-1.08-1.64-2.14-3.27-3.15-4.94c-0.9-1.49-1.76-3.01-2.57-4.55c-1.22-2.34-2.31-4.74-3-7.3
	c-0.5-1.85-0.79-3.78-0.38-5.64c0.32-1.44,1.08-2.83,2.39-3.59"/>
<path class="st0" d="M668.78,870.76c4.21,6.61,10.18,11.32,15.39,16.87"/>
<path class="st0" d="M668.29,867.48c-1.16,0.74-0.46,1.55-0.02,2.43"/>
<line class="st0" x1="886.19" y1="717.2" x2="648.6" y2="869.18"/>
<path class="st0" d="M890.01,755.95c-0.47-1.52-0.91-3.04-1.31-4.57c-0.41-1.56-0.78-3.13-1.1-4.71c-0.6-2.91-1.03-5.85-1.25-8.82
	c-0.18-2.42-0.21-4.85,0.14-7.24c0.12-0.8,0.28-1.59,0.57-2.35c0.19-0.5,0.45-0.99,0.9-1.3"/>
<path class="st0" d="M819.06,753.45c0.77-0.53,1.52-0.86,2.38-1.15c0.58-0.2,1.22-0.39,1.79-0.22c0.41,0.12,0.79,0.42,0.97,0.78
	c0.25,0.49,0.15,1.11,0,1.69c-0.46,1.73-1.44,3.15-2.55,4.46c-1.32,1.56-2.82,2.97-4.55,4.06"/>
<path class="st0" d="M817.1,763.08c-0.75,0.52-1.46,0.83-2.28,1.13c-0.6,0.22-1.26,0.43-1.86,0.26c-0.42-0.12-0.81-0.42-1-0.8
	c-0.24-0.49-0.14-1.1,0.02-1.68c0.47-1.7,1.41-3.11,2.5-4.42c1.32-1.58,2.84-3.02,4.57-4.12"/>
<path class="st0" d="M873.67,722.74c-2.01,3.26-3.68,6.52-7.16,8.74"/>
<path class="st0" d="M676.21,849.04c1.87-0.23,8.13-1.04,5.18,0.85"/>
<path class="st0" d="M665.25,851.84c3.49-2.23,7.15-2.34,10.96-2.8"/>
<path class="st0" d="M875.05,717.64c2.97-1.9-0.38,3.48-1.38,5.1"/>
<path class="st0" d="M718.47,820.38c-2.03-2.54,1.05-3.26,2.76-4.36"/>
<path class="st0" d="M730.79,818.29c-0.47,0.3-0.95,0.57-1.44,0.83c-0.57,0.29-1.15,0.56-1.75,0.8c-1.14,0.46-2.31,0.82-3.51,1.07
	c-1.02,0.21-2.06,0.34-3.1,0.29c-0.76-0.03-1.52-0.16-2.17-0.57"/>
<path class="st0" d="M670.45,852.72c-1.89,0.23-8.17,1.01-5.21-0.88"/>
<path class="st0" d="M681.39,849.89c-3.48,2.22-7.13,2.37-10.94,2.83"/>
<path class="st0" d="M867.91,726.42c-0.99,1.61-4.35,6.95-1.4,5.06"/>
<path class="st0" d="M875.05,717.64c-3.49,2.23-5.12,5.52-7.14,8.78"/>
<path class="st0" d="M733.82,814.59c0.23,2.37-1.56,2.75-3.03,3.69"/>
<path class="st0" d="M721.24,816.02c0.53-0.34,1.09-0.65,1.66-0.93c0.64-0.32,1.3-0.6,1.98-0.85c1.22-0.45,2.48-0.8,3.76-1.01
	c1.04-0.17,2.09-0.24,3.15-0.08c0.71,0.11,1.43,0.32,1.86,0.92"/>
<line class="st0" x1="685.06" y1="875.55" x2="681.19" y2="878.02"/>
<path class="st0" d="M694.67,869.4c0.72-0.46-0.72,0.46-1.08,0.69c-0.41,0.26-0.81,0.52-1.22,0.78c-0.81,0.52-1.63,1.04-2.44,1.56
	c-1.63,1.04-3.25,2.08-4.88,3.12"/>
<line class="st0" x1="829.82" y1="782.95" x2="825.96" y2="785.42"/>
<path class="st0" d="M839.44,776.8c0.72-0.46-0.72,0.46-1.08,0.69c-0.41,0.26-0.81,0.52-1.22,0.78c-0.81,0.52-1.63,1.04-2.44,1.56
	c-1.63,1.04-3.25,2.08-4.88,3.12"/>
<line class="st0" x1="882.51" y1="749.25" x2="878.65" y2="751.72"/>
<path class="st0" d="M892.13,743.09c0.72-0.46-0.72,0.46-1.08,0.69c-0.41,0.26-0.81,0.52-1.22,0.78c-0.81,0.52-1.62,1.04-2.44,1.56
	c-1.63,1.04-3.25,2.08-4.88,3.12"/>
<line class="st0" x1="737.75" y1="841.85" x2="733.88" y2="844.32"/>
<path class="st0" d="M747.36,835.7c0.72-0.46-0.72,0.46-1.08,0.69c-0.41,0.26-0.81,0.52-1.22,0.78c-0.81,0.52-1.63,1.04-2.44,1.56
	c-1.63,1.04-3.25,2.08-4.88,3.12"/>
<line class="st0" x1="779.04" y1="757.87" x2="802.06" y2="743.14"/>
<line class="st0" x1="769.32" y1="802.46" x2="796.46" y2="785.1"/>
<line class="st0" x1="751.9" y1="775.23" x2="779.04" y2="757.87"/>
<line class="st0" x1="796.46" y1="785.1" x2="819.48" y2="770.38"/>
<line class="st0" x1="802.06" y1="743.14" x2="803.94" y2="741.94"/>
<line class="st0" x1="813.55" y1="788.87" x2="806.88" y2="778.44"/>
<line class="st0" x1="537.48" y1="285.14" x2="547.36" y2="278.82"/>
<line class="st0" x1="543.8" y1="306.45" x2="553.67" y2="300.13"/>
<line class="st0" x1="559.26" y1="313.87" x2="569.14" y2="307.56"/>
<line class="st0" x1="552.95" y1="292.56" x2="562.82" y2="286.25"/>
<line class="st0" x1="661.39" y1="703.39" x2="671.26" y2="697.08"/>
<line class="st0" x1="667.71" y1="724.7" x2="677.58" y2="718.39"/>
<line class="st0" x1="683.17" y1="732.13" x2="693.04" y2="725.81"/>
<line class="st0" x1="676.86" y1="710.82" x2="686.73" y2="704.5"/>
<line class="st0" x1="762.61" y1="665.16" x2="772.45" y2="658.87"/>
<line class="st0" x1="768.92" y1="686.48" x2="778.79" y2="680.16"/>
<line class="st0" x1="784.38" y1="693.9" x2="794.26" y2="687.59"/>
<line class="st0" x1="778.07" y1="672.59" x2="787.94" y2="666.27"/>
<line class="st0" x1="569.14" y1="307.56" x2="562.82" y2="286.25"/>
<line class="st0" x1="553.67" y1="300.13" x2="569.14" y2="307.56"/>
<line class="st0" x1="547.36" y1="278.82" x2="553.67" y2="300.13"/>
<line class="st0" x1="562.82" y1="286.25" x2="547.36" y2="278.82"/>
<line class="st0" x1="693.04" y1="725.81" x2="686.73" y2="704.5"/>
<line class="st0" x1="677.58" y1="718.39" x2="693.04" y2="725.81"/>
<line class="st0" x1="671.26" y1="697.08" x2="677.58" y2="718.39"/>
<line class="st0" x1="686.73" y1="704.5" x2="671.26" y2="697.08"/>
<line class="st0" x1="794.26" y1="687.59" x2="787.94" y2="666.27"/>
<line class="st0" x1="778.79" y1="680.16" x2="794.26" y2="687.59"/>
<line class="st0" x1="772.49" y1="658.87" x2="778.79" y2="680.16"/>
<line class="st0" x1="787.94" y1="666.27" x2="772.48" y2="658.85"/>
<line class="st0" x1="737.75" y1="541.63" x2="744.07" y2="562.94"/>
<line class="st0" x1="744.07" y1="562.94" x2="759.53" y2="570.37"/>
<line class="st0" x1="734.19" y1="569.26" x2="744.07" y2="562.94"/>
<line class="st0" x1="759.53" y1="570.37" x2="753.22" y2="549.06"/>
<line class="st0" x1="749.66" y1="576.69" x2="759.53" y2="570.37"/>
<line class="st0" x1="737.75" y1="541.63" x2="727.88" y2="547.95"/>
<line class="st0" x1="753.22" y1="549.06" x2="737.75" y2="541.63"/>
<line class="st0" x1="743.34" y1="555.37" x2="753.22" y2="549.06"/>
<line class="st0" x1="722.52" y1="786.35" x2="838.58" y2="712.11"/>
<line class="st0" x1="729.42" y1="410.13" x2="746.43" y2="314.5"/>
<line class="st0" x1="723.69" y1="442.37" x2="855.13" y2="505.49"/>
<path class="st0" d="M855.13,505.49c2.93-34.7,5.06-69.42,6.39-104.22"/>
<path class="st0" d="M862.21,394.88c-0.37,2.12-0.61,4.25-0.69,6.4"/>
<line class="st0" x1="866.27" y1="372.05" x2="862.21" y2="394.88"/>
<path class="st0" d="M446,264.05c14.78-9.52,30.13-17.27,46.56-23.51"/>
<path class="st0" d="M722.61,347.8c45.67,131.91-26.16,298.01-139.54,370.53"/>
<path class="st0" d="M638.45,245.92c39.2,20.07,61.4,47.52,78.44,87.11"/>
<path class="st0" d="M448.9,265.45c14.18-9.13,28.91-16.64,44.62-22.77"/>
<line class="st0" x1="866.27" y1="372.05" x2="746.43" y2="314.5"/>
<path class="st0" d="M826.09,343.96c15.1,7.28,28.16,16.41,40.18,28.09"/>
<path class="st0" d="M710.76,335.21c38.77-10.25,72.05-9.99,109.62,6.15"/>
<path class="st0" d="M496,248.48c-16,6.08-30.95,13.63-45.34,22.9"/>
<path class="st0" d="M746.43,314.5c62.24,60.22,67.72,157.51,48.56,233.5c-19.85,78.72-69.5,155.51-139.26,200.14"/>
<path class="st0" d="M855.13,505.49c-17.35-58.58-67.35-92.89-128.64-78.89"/>
<path class="st0" d="M633.02,671.49c65.04-41.6,106.03-128.3,95.76-205.09"/>
<path class="st0" d="M800.87,435.04c40.15,19.53,59.48,60.91,63.51,102.29c4.39,45.02-5.11,82.1-26.26,121.34"/>
<path class="st0" d="M726.02,429.23c24.23-6.33,45.29-6.29,68.95,3.21"/>
<path class="st0" d="M757.54,705.08c0.73,1.32,1.24,2.67,1.56,4.14"/>
<path class="st0" d="M702.97,705.08c2.57-1.64,5.26-3.09,8.03-4.37c2.71-1.25,5.5-2.34,8.35-3.25c5.14-1.64,10.48-2.7,15.88-2.76
	c4.47-0.05,8.99,0.58,13.08,2.38c3.49,1.54,6.66,3.92,8.72,7.15"/>
<line class="st0" x1="860.71" y1="644.22" x2="698.13" y2="748.22"/>
<path class="st0" d="M699.57,581.64c-0.21,0.89-0.2,1.7,0.04,2.58"/>
<path class="st0" d="M705.4,577.47c-2.12-0.88-3.26-0.07-4.56,1.54"/>
<path class="st0" d="M707.01,579.48c-0.25-0.97-0.72-1.55-1.61-2.01"/>
<path class="st0" d="M711.21,580.26c0.89,0.46,1.35,1.04,1.6,2"/>
<path class="st0" d="M705.41,587c-1.06-4.61,0.27-8.35,5.48-6.87"/>
<path class="st0" d="M716.51,579.9c2.49,10.78-11.48,20.71-14.81,9.47"/>
<path class="st0" d="M800.77,639.34c-1.32-0.95-2.08-2.03-2.5-3.6"/>
<path class="st0" d="M813.08,626.27c1.64,7.1-3.85,16.73-11.6,13.48"/>
<path class="st0" d="M701.71,589.37c-2.49-10.78,11.48-20.71,14.81-9.47"/>
<path class="st0" d="M809.87,622.26c1.78,0.91,2.7,2.08,3.21,4.01"/>
<path class="st0" d="M798.27,635.74c-1.55-6.72,3.36-15.9,10.97-13.74"/>
<path class="st0" d="M699.61,584.22c1.41,5.69,8.65,0.65,7.41-4.74"/>
<path class="st0" d="M706.66,588.8c-0.66-0.47-1.04-1.02-1.25-1.8"/>
<path class="st0" d="M712.81,582.26c1.1,4.77-0.6,8.92-5.8,6.74"/>
<path class="st0" d="M701.67,567.31c7.39-3.07,11.7-1.05,13.98,6.64"/>
<path class="st0" d="M731.24,577.41c-12.08-3.43-21.5,12.01-18.28,22.89"/>
<path class="st0" d="M737.64,584.51c-0.83-3.17-2.35-5.1-5.25-6.63"/>
<path class="st0" d="M690.97,589.74c3.05,10.3,10.15,10.61,17.89,4.26c6.98-5.72,9.46-11.03,6.79-20.05"/>
<path class="st0" d="M718.21,606.93c12.31,6.09,22.88-10.79,19.44-22.42"/>
<path class="st0" d="M712.96,600.3c0.71,2.62,1.96,4.43,4.17,6"/>
<path class="st0" d="M737.99,635.24c1.98-1.26,3.65-2.94,5.01-4.85c1.44-2.02,2.52-4.29,3.19-6.68c0.65-2.3,0.9-4.71,0.67-7.09
	c-0.21-2.12-0.82-4.21-1.96-6.01c-1.02-1.61-2.47-2.97-4.19-3.76c-1.73-0.79-3.73-1.01-5.62-0.73c-2.11,0.31-4.09,1.24-5.83,2.49
	c-1.93,1.38-3.55,3.14-4.83,5.13"/>
<line class="st0" x1="744.3" y1="617.99" x2="742.09" y2="616.47"/>
<path class="st0" d="M825.95,665.26c9.49,7.1,0.62,20.59-7.1,25.53"/>
<path class="st0" d="M814.68,666.33c3.42-2.19,6.2-3.61,10.35-1.61"/>
<path class="st0" d="M724.43,613.75c2.11,0.69,4.22,1.34,6.37,1.9c0.93,0.24,1.86,0.47,2.8,0.68c0.85,0.18,1.7,0.34,2.55,0.47
	c1.21,0.19,2.44,0.32,3.66,0.25c0.56-0.03,1.11-0.1,1.64-0.26c0.23-0.07,0.46-0.15,0.65-0.32"/>
<path class="st0" d="M719.78,573.76c-8.94,6.07-12.49,12.71-12.57,23.52c-0.07,10.01,6.45,18.74,17.21,16.47"/>
<path class="st0" d="M795.49,651.22c5.95,2.86,10.15,1.55,15.32-1.75"/>
<path class="st0" d="M799.76,612.17c-12.76,8.16-20,30.73-4.41,38.98"/>
<path class="st0" d="M697.23,455.22c11.06-7.08,24.95-1.78,31.58,8.58"/>
<path class="st0" d="M708.74,447.86c11.06-7.08,24.95-1.78,31.58,8.58"/>
<line class="st0" x1="728.8" y1="463.8" x2="763.64" y2="518.27"/>
<path class="st0" d="M773.71,508.87c-3.89-5.07-8.24-7.85-14.47-9.24"/>
<path class="st0" d="M758.2,550.53c11.06-7.08,12.08-21.9,5.45-32.27"/>
<line class="st0" x1="740.31" y1="456.44" x2="775.15" y2="510.91"/>
<line class="st0" x1="759.24" y1="499.63" x2="763.65" y2="496.81"/>
<line class="st0" x1="734.14" y1="460.39" x2="759.24" y2="499.63"/>
<path class="st0" d="M734.14,460.39c-4.42-6.91-13.67-10.44-21.05-5.72"/>
<path class="st0" d="M725.46,448.96c6.76-0.11,10.75,2.07,14.3,7.83"/>
<path class="st0" d="M718.7,451.07c2.09-1.33,4.17-1.99,6.64-2.1"/>
<line class="st0" x1="719.78" y1="573.76" x2="719.62" y2="573.23"/>
<line class="st0" x1="799.76" y1="612.17" x2="719.78" y2="573.76"/>
<path class="st0" d="M491.63,238.55c-16.3,6.26-31.55,13.99-46.24,23.45"/>
<line class="st0" x1="742.09" y1="616.47" x2="810.81" y2="649.47"/>
<line class="st0" x1="798.78" y1="802.32" x2="780.69" y2="813.9"/>
<path class="st0" d="M801.59,800.41c-0.92,0.67-1.85,1.3-2.81,1.91"/>
<path class="st0" d="M813.55,788.87c-3.16,4.01-6.68,7.5-10.72,10.62"/>
<path class="st0" d="M824.95,774.71c1.51,2.37-3.48,6.56-4.61,7.75c-2.14,2.27-4.43,4.37-6.8,6.4"/>
<path class="st0" d="M811.6,779.81c1.79-1.14,10.26-7.36,13.13-5.34"/>
<path class="st0" d="M812.91,658.22c0.62,2.7,1.21,5.4,1.77,8.11"/>
<path class="st0" d="M810.81,649.47c0.71,2.82,1.39,5.66,2.04,8.5"/>
<path class="st0" d="M799.58,611.62c0.06,0.18,0.12,0.36,0.18,0.55"/>
<path class="st0" d="M796.61,603.14c0.06,0.16,0.12,0.32,0.17,0.48"/>
<path class="st0" d="M793.47,594.58c0.05,0.14,0.1,0.28,0.16,0.42"/>
<path class="st0" d="M790.14,585.95c0.05,0.12,0.09,0.23,0.14,0.35"/>
<path class="st0" d="M786.64,577.28c0.04,0.09,0.08,0.19,0.11,0.28"/>
<path class="st0" d="M782.98,568.57c0.03,0.07,0.06,0.14,0.09,0.21"/>
<path class="st0" d="M771.02,542.33c2.81,5.84,5.54,11.72,8.19,17.64"/>
<path class="st0" d="M763.65,496.81c19.54,5.07,24.42,34.62,7.37,45.52"/>
<path class="st0" d="M739.75,456.8c8.38,13.1,16.34,26.42,23.9,40.01"/>
<line class="st0" x1="667.71" y1="724.7" x2="657.83" y2="731.02"/>
<line class="st0" x1="661.39" y1="703.39" x2="651.52" y2="709.71"/>
<line class="st0" x1="676.86" y1="710.82" x2="666.98" y2="717.13"/>
<line class="st0" x1="683.17" y1="732.13" x2="673.3" y2="738.44"/>
<line class="st0" x1="543.8" y1="306.45" x2="533.93" y2="312.76"/>
<line class="st0" x1="537.48" y1="285.14" x2="527.61" y2="291.45"/>
<line class="st0" x1="552.95" y1="292.56" x2="543.08" y2="298.88"/>
<line class="st0" x1="559.26" y1="313.87" x2="549.39" y2="320.19"/>
<line class="st0" x1="768.92" y1="686.48" x2="759.05" y2="692.79"/>
<line class="st0" x1="762.61" y1="665.16" x2="752.73" y2="671.48"/>
<line class="st0" x1="778.07" y1="672.59" x2="768.2" y2="678.91"/>
<line class="st0" x1="784.38" y1="693.9" x2="774.51" y2="700.22"/>
<line class="st0" x1="666.98" y1="717.13" x2="673.3" y2="738.44"/>
<line class="st0" x1="651.52" y1="709.71" x2="666.98" y2="717.13"/>
<line class="st0" x1="657.83" y1="731.02" x2="651.52" y2="709.71"/>
<line class="st0" x1="673.3" y1="738.44" x2="657.83" y2="731.02"/>
<line class="st0" x1="543.08" y1="298.88" x2="549.39" y2="320.19"/>
<line class="st0" x1="527.61" y1="291.45" x2="543.08" y2="298.88"/>
<line class="st0" x1="533.93" y1="312.76" x2="527.61" y2="291.45"/>
<line class="st0" x1="549.39" y1="320.19" x2="533.93" y2="312.76"/>
<line class="st0" x1="768.2" y1="678.91" x2="774.51" y2="700.22"/>
<line class="st0" x1="752.73" y1="671.48" x2="768.2" y2="678.91"/>
<line class="st0" x1="759.05" y1="692.79" x2="752.73" y2="671.48"/>
<line class="st0" x1="774.51" y1="700.22" x2="759.05" y2="692.79"/>
<line class="st0" x1="724.31" y1="575.55" x2="718.01" y2="554.26"/>
<line class="st0" x1="718.01" y1="554.26" x2="733.47" y2="561.69"/>
<line class="st0" x1="727.88" y1="547.95" x2="718.01" y2="554.26"/>
<line class="st0" x1="733.47" y1="561.69" x2="739.78" y2="582.97"/>
<line class="st0" x1="743.34" y1="555.37" x2="733.47" y2="561.69"/>
<line class="st0" x1="724.35" y1="575.56" x2="734.19" y2="569.26"/>
<line class="st0" x1="749.66" y1="576.69" x2="739.81" y2="582.98"/>
<path class="st0" d="M715.07,472.58c-5.28-8.26-5.62-14.3,2.56-20.75"/>
<path class="st0" d="M713.09,454.66c-7.38,4.72-8.05,14.6-3.63,21.51"/>
<line class="st0" x1="714.2" y1="453.95" x2="718.7" y2="451.07"/>
<line class="st0" x1="726.62" y1="541.95" x2="691.78" y2="487.48"/>
<line class="st0" x1="758.2" y1="550.53" x2="697.23" y2="455.22"/>
<path class="st0" d="M703.29,480.12c-6.23-9.74-5.8-23.52,3.84-31.12"/>
<path class="st0" d="M697.23,455.22c-11.06,7.08-12.08,21.9-5.45,32.27"/>
<line class="st0" x1="698.89" y1="454.15" x2="708.74" y2="447.86"/>
<line class="st0" x1="736.79" y1="532.49" x2="703.29" y2="480.12"/>
<line class="st0" x1="708.74" y1="447.86" x2="713.09" y2="454.66"/>
<line class="st0" x1="734.56" y1="515.42" x2="709.46" y2="476.17"/>
<path class="st0" d="M726.62,541.95c6.63,10.36,20.51,15.66,31.58,8.58"/>
<path class="st0" d="M734.56,515.42c-1.55,7.29-0.5,12.92,3.57,19.17"/>
<line class="st0" x1="738.97" y1="512.6" x2="734.56" y2="515.42"/>
<line class="st0" x1="771.02" y1="542.33" x2="759.86" y2="549.47"/>
<path class="st0" d="M604.6,808.04c23.46,5.84,46.74,8.58,70.91,8.37"/>
<line class="st0" x1="767.19" y1="704.05" x2="791.58" y2="742.17"/>
<path class="st0" d="M542.13,853.76c-0.43-0.09-0.85-0.19-1.27-0.29"/>
<line class="st0" x1="722.52" y1="786.35" x2="606.46" y2="860.58"/>
<line class="st0" x1="722.52" y1="786.35" x2="698.13" y2="748.22"/>
<line class="st0" x1="698.13" y1="748.22" x2="535.66" y2="852.14"/>
<path class="st0" d="M692.59,723.52c4.88,7.47,20.94,9.92,28.07,10.29"/>
<path class="st0" d="M691.46,720.96c0.22,0.86,0.55,1.64,1.03,2.4"/>
<path class="st0" d="M702.97,705.08c-1.01,0.65-2.01,1.33-2.98,2.04c-0.82,0.61-1.63,1.25-2.4,1.92c-1.44,1.25-2.8,2.6-3.94,4.14
	c-0.84,1.13-1.56,2.37-1.99,3.71c-0.37,1.16-0.53,2.4-0.3,3.59"/>
<line class="st0" x1="721.15" y1="733.49" x2="702.97" y2="705.08"/>
<line class="st0" x1="377.93" y1="550.21" x2="457.12" y2="612.88"/>
<line class="st0" x1="511.91" y1="618.95" x2="497.78" y2="607.76"/>
<path class="st0" d="M516.16,622.18c-1.43-1.06-2.85-2.13-4.25-3.24"/>
<path class="st0" d="M516.16,622.18c1.39,1.02,2.78,2.04,4.16,3.07"/>
<path class="st0" d="M647.95,748.9c-26.97-13.63-41.35-32.45-52.05-59.88"/>
<path class="st0" d="M681.43,758.9c-11.22-1.29-21.51-4.25-31.7-9.13"/>
<path class="st0" d="M629.13,673.9c1.31-0.79,2.61-1.6,3.89-2.42"/>
<path class="st0" d="M457.12,612.88c3.74,12.91,9.14,24.59,16.55,35.81"/>
<line class="st0" x1="504.27" y1="635.53" x2="457.12" y2="612.88"/>
<path class="st0" d="M497.78,607.76c8.97-77.98,47.18-155.26,104.24-209.35"/>
<line class="st0" x1="377.93" y1="550.21" x2="497.78" y2="607.76"/>
<path class="st0" d="M381.05,637.91c-5.71-29.41-6.72-57.96-3.12-87.7"/>
<path class="st0" d="M473.44,768.3c-12.32-6.05-23.31-13.44-33.6-22.51"/>
<path class="st0" d="M655.73,748.14c-52.71,33.72-120.5,49.84-181.16,20.71"/>
<path class="st0" d="M450.66,271.38c-114.25,73.08-187.24,246.84-129.31,377.5"/>
<path class="st0" d="M315.3,651.25c-57.9-133.99,16.71-311.04,133.6-385.81"/>
<path class="st0" d="M517.39,748.06c-40.81,11.21-75.67,11.14-115.28-6.14"/>
<path class="st0" d="M583.07,718.33c-14.95,9.63-30.49,17.45-47.12,23.73"/>
<path class="st0" d="M313.33,651.99C253.61,517.79,328.61,339.14,446,264.05"/>
<line class="st0" x1="537.48" y1="285.14" x2="552.95" y2="292.56"/>
<line class="st0" x1="543.8" y1="306.45" x2="537.48" y2="285.14"/>
<line class="st0" x1="559.26" y1="313.87" x2="543.8" y2="306.45"/>
<line class="st0" x1="552.95" y1="292.56" x2="559.26" y2="313.87"/>
<line class="st0" x1="727.88" y1="547.95" x2="743.34" y2="555.37"/>
<line class="st0" x1="734.19" y1="569.26" x2="727.88" y2="547.95"/>
<line class="st0" x1="749.66" y1="576.69" x2="734.19" y2="569.26"/>
<line class="st0" x1="743.34" y1="555.37" x2="749.66" y2="576.69"/>
<line class="st0" x1="719.62" y1="573.23" x2="799.58" y2="611.62"/>
<line class="st0" x1="450.66" y1="271.38" x2="521.88" y2="305.58"/>
<line class="st0" x1="448.9" y1="265.45" x2="450.66" y2="271.38"/>
<line class="st0" x1="446" y1="264.05" x2="448.9" y2="265.45"/>
<path class="st0" d="M744.3,617.99c-0.32,0.21-0.69,0.34-1.07,0.42c-0.49,0.11-1,0.16-1.51,0.17c-1.4,0.04-2.8-0.14-4.18-0.38
	c-4.63-0.81-9.11-2.26-13.54-3.76"/>
<path class="st0" d="M719.62,573.23c-9.11,6.19-12.76,12.97-12.93,23.98c-0.15,10.15,6.28,19.27,17.3,17.22"/>
<path class="st0" d="M795.04,651.72c-16.04-8.49-8.6-31.7,4.53-40.1"/>
<path class="st0" d="M810.94,649.99c-5.31,3.4-9.64,4.74-15.76,1.8"/>
<line class="st0" x1="710.95" y1="543.95" x2="719.62" y2="573.23"/>
<path class="st0" d="M724,614.44c-0.88,1.48-1.62,3.13-2.13,4.81c-0.49,1.63-0.78,3.29-0.85,4.99c-0.12,3.07,0.45,6.29,2.19,8.8
	c1.52,2.18,3.91,3.83,6.53,4.25c2.83,0.45,5.9-0.53,8.25-2.04"/>
<line class="st0" x1="744.3" y1="617.99" x2="814.68" y2="666.33"/>
<path class="st0" d="M806.77,691.19c-7.52-7.64,0.77-20.29,7.91-24.86"/>
<path class="st0" d="M818.86,690.79c-3.84,2.46-6.88,4.13-11.28,1.07"/>
<line class="st0" x1="818.86" y1="690.79" x2="737.99" y2="635.24"/>
<path class="st0" d="M740.14,782.75c-0.94,0.6,0.94-0.6,1.41-0.9c0.49-0.32,0.99-0.63,1.48-0.95c0.99-0.63,1.97-1.26,2.96-1.89
	c1.97-1.26,3.94-2.52,5.91-3.78"/>
<path class="st0" d="M757.56,809.98c-0.94,0.6,0.94-0.6,1.41-0.9c0.49-0.32,0.99-0.63,1.48-0.95c0.99-0.63,1.97-1.26,2.96-1.89
	c1.97-1.26,3.94-2.52,5.91-3.78"/>
<line class="st0" x1="769.32" y1="802.46" x2="751.9" y2="775.23"/>
<line class="st0" x1="792.18" y1="749.46" x2="811.6" y2="779.81"/>
<line class="st0" x1="788.87" y1="804.66" x2="782.2" y2="794.23"/>
<line class="st0" x1="780.69" y1="813.9" x2="772.84" y2="818.92"/>
<line class="st0" x1="780.69" y1="813.9" x2="772.2" y2="800.62"/>
<line class="st0" x1="786.8" y1="638.39" x2="744.3" y2="617.99"/>
<line class="st0" x1="810.94" y1="649.99" x2="787.41" y2="638.68"/>
<line class="st0" x1="661.39" y1="703.39" x2="676.86" y2="710.82"/>
<line class="st0" x1="667.71" y1="724.7" x2="661.39" y2="703.39"/>
<line class="st0" x1="683.17" y1="732.13" x2="667.71" y2="724.7"/>
<line class="st0" x1="676.86" y1="710.82" x2="683.17" y2="732.13"/>
<line class="st0" x1="762.61" y1="665.16" x2="778.07" y2="672.59"/>
<line class="st0" x1="784.38" y1="693.9" x2="768.92" y2="686.48"/>
<line class="st0" x1="778.07" y1="672.59" x2="784.38" y2="693.9"/>
<line class="st0" x1="583.07" y1="718.33" x2="580.17" y2="716.94"/>
<line class="st0" x1="582.25" y1="715.59" x2="583.07" y2="718.33"/>
<line class="st0" x1="655.73" y1="748.14" x2="581.31" y2="712.4"/>
<line class="st0" x1="633.02" y1="671.49" x2="655.73" y2="748.14"/>
<line class="st0" x1="702.97" y1="705.08" x2="633.02" y2="671.49"/>
<line class="st0" x1="737.99" y1="635.24" x2="759.78" y2="708.79"/>
<path class="st0" d="M352.13,354.96c-55.03,82.01-83.5,201.2-40.93,297.79"/>
<path class="st0" d="M445.39,262c-38.66,24.73-67.87,55.14-93.26,92.97"/>
<line class="st0" x1="446" y1="264.05" x2="445.39" y2="262"/>
<path class="st0" d="M718.7,451.07c-33.07-49.36-69.71-93.55-115.26-132.27c-33.22-28.24-105.52-80.86-158.05-56.81"/>
<path class="st0" d="M738.97,512.6c-7.56-13.59-15.52-26.91-23.9-40.01"/>
<path class="st0" d="M769.53,543.19c-18.95,9.91-35.66-11.68-30.56-30.6"/>
<path class="st0" d="M782.98,568.57c-1.23-2.87-2.49-5.74-3.77-8.6"/>
<path class="st0" d="M786.64,577.28c-1.17-2.84-2.36-5.68-3.58-8.5"/>
<path class="st0" d="M790.14,585.95c-1.11-2.81-2.23-5.6-3.38-8.39"/>
<path class="st0" d="M793.47,594.58c-1.04-2.77-2.1-5.52-3.19-8.27"/>
<path class="st0" d="M796.61,603.14c-0.98-2.72-1.97-5.44-2.99-8.15"/>
<path class="st0" d="M799.58,611.62c-0.91-2.68-1.84-5.34-2.79-8"/>
<path class="st0" d="M812.91,658.22c-0.02-0.09-0.04-0.17-0.06-0.26"/>
<path class="st0" d="M811.6,779.81c12.98-30.14,11.36-58.18,7.26-89.02"/>
<path class="st0" d="M786.23,804.19c-1.32-3.96,9.18-11.97,11.07-13.62c4.52-3.94,9.24-7.53,14.29-10.76"/>
<path class="st0" d="M788.87,804.66c-0.9,0.22-1.72,0.82-2.51-0.22"/>
<path class="st0" d="M776.51,816.49c4.73-3.39,8.77-7.26,12.36-11.83"/>
<path class="st0" d="M694.65,806.16c24.5,11.27,58.43,21.12,86.04,7.74"/>
<line class="st0" x1="768.92" y1="686.48" x2="762.61" y2="665.16"/>
</svg>
