<?xml version="1.0" encoding="utf-8"?>
<!-- Generator: Adobe Illustrator 24.0.2, SVG Export Plug-In . SVG Version: 6.00 Build 0)  -->
<svg version="1.1" id="Capa_1" xmlns="http://www.w3.org/2000/svg" xmlns:xlink="http://www.w3.org/1999/xlink" x="0px" y="0px"
	 viewBox="0 0 35 35" style="enable-background:new 0 0 35 35;" xml:space="preserve">
<style type="text/css">
	.st0{fill:#FFFFFF;}
	.st1{fill:#EB5757;}
</style>
<g>
	<path class="st0" d="M34.19,17.5c0,9.18-7.46,16.62-16.66,16.62c-9.2,0-16.66-7.44-16.66-16.62c0-9.18,7.46-16.63,16.66-16.63
		C26.73,0.88,34.19,8.32,34.19,17.5z"/>
	<path class="st1" d="M17.53,35C7.86,35,0,27.15,0,17.5C0,7.85,7.86,0,17.53,0c9.67,0,17.53,7.85,17.53,17.5
		C35.06,27.15,27.2,35,17.53,35z M17.53,1.75c-8.7,0-15.78,7.07-15.78,15.75c0,8.69,7.08,15.75,15.78,15.75
		c8.7,0,15.78-7.06,15.78-15.75C33.31,8.82,26.23,1.75,17.53,1.75z"/>
</g>
<g>
	<path class="st1" d="M12.04,25.25c-0.32,0-0.57-0.1-0.74-0.29c-0.17-0.21-0.25-0.45-0.25-0.71c0-0.28,0.08-0.53,0.25-0.76l4.9-6.51
		l-4.63-6.41c-0.17-0.22-0.24-0.47-0.21-0.73c0.03-0.27,0.13-0.5,0.29-0.69c0.18-0.2,0.42-0.29,0.72-0.29
		c0.36,0,0.62,0.11,0.78,0.32l4.52,6.26l4.71-6.26c0.2-0.21,0.46-0.32,0.78-0.32c0.29,0,0.53,0.09,0.69,0.27
		c0.17,0.18,0.26,0.41,0.27,0.67c0.01,0.27-0.06,0.52-0.23,0.78l-4.8,6.38l4.71,6.53c0.17,0.22,0.25,0.48,0.23,0.76
		c-0.01,0.28-0.11,0.52-0.29,0.71c-0.17,0.2-0.41,0.29-0.72,0.29c-0.35,0-0.63-0.13-0.84-0.4l-4.57-6.32l-4.84,6.41
		C12.59,25.15,12.34,25.25,12.04,25.25z"/>
</g>
</svg>
